<svg width="400" height="400" viewBox="0 0 400 400" fill="none" xmlns="http://www.w3.org/2000/svg">
<g clip-path="url(#clip0_217_11)">
<circle cx="200" cy="200" r="200" fill="white"/>
<path d="M240.676 240.676C215.499 265.854 187.87 283.254 163.854 291.259C139.33 299.434 121.126 297.146 111.49 287.51C101.854 277.874 99.5664 259.669 107.741 235.146C115.746 211.13 133.146 183.501 158.323 158.324C183.501 133.146 211.13 115.746 235.146 107.741C259.669 99.5665 277.874 101.854 287.51 111.49C297.145 121.126 299.433 139.331 291.259 163.854C283.254 187.87 265.854 215.499 240.676 240.676Z" stroke="#333333" stroke-width="16"/>
<path d="M232.168 166.37C252.774 186.976 266.962 209.54 273.469 229.062C280.146 249.092 278.074 263.374 270.724 270.724C263.374 278.074 249.092 280.146 229.062 273.469C209.54 266.962 186.976 252.774 166.37 232.168C145.763 211.562 131.576 188.998 125.068 169.476C118.392 149.446 120.464 135.164 127.814 127.814C135.164 120.464 149.446 118.392 169.476 125.068C188.998 131.576 211.562 145.763 232.168 166.37Z" stroke="#333333" stroke-width="16"/>
<rect x="313.857" y="74" width="16" height="340.623" rx="8" transform="rotate(45 313.857 74)" fill="#333333"/>
</g>
<defs>
<clipPath id="clip0_217_11">
<rect width="400" height="400" fill="white"/>
</clipPath>
</defs>
</svg>
