<svg width="450" height="450" viewBox="0 0 450 450" fill="none" xmlns="http://www.w3.org/2000/svg">
<g clip-path="url(#clip0_113_80)">
<path d="M293.616 83.248C289.098 85.3087 287.077 90.2181 288.86 94.8245C291.238 101.249 299.799 102.583 303.841 97.1277C305.922 94.3396 306.16 89.4302 304.257 86.8846C301.463 83.0055 297.183 81.5509 293.616 83.248Z" fill="white"/>
<path d="M206.525 0.636353C182.567 2.75771 154.151 10.2734 133.106 20.0316C112.953 29.3656 95 40.8209 79.0084 54.4582C72.1124 60.3373 56.1804 76.5809 51.6029 82.3994C27.6453 112.765 14.6856 138.282 6.48175 170.769C1.25032 191.74 -0.0575351 202.65 0.00191303 226.955C0.00191303 244.592 0.0613611 246.35 1.66646 256.048C3.86604 269.988 5.76838 278.837 8.50299 287.868C16.6474 314.718 27.2291 335.932 43.4585 358.054C51.5434 369.085 53.5052 371.389 62.3035 380.541C94.8811 414.422 136.97 437.332 183.043 446.303C198.499 449.273 206.168 450 224.656 450C242.55 450 247.128 449.636 264.486 446.606C305.387 439.514 347.238 418.483 378.627 389.208C385.047 383.208 398.245 368.964 403.417 362.418C417.149 345.084 430.466 320.355 437.54 299.202C450.202 261.563 453.175 224.348 446.635 187.558C444.852 177.436 439.918 158.526 436.826 149.859C430.406 131.676 419.468 111.007 408.054 95.37C385.226 64.0346 360.198 42.8816 323.578 23.6682C303.663 13.2433 282.796 6.45494 258.839 2.75772C241.599 0.0908744 221.803 -0.697071 206.525 0.636353ZM274.176 60.5798C281.251 61.3677 289.098 63.6103 295.399 66.6408C300.215 69.0046 304.317 72.1563 313.531 80.5811C316.325 83.0662 321.259 87.4907 324.529 90.4C335.111 99.734 336.716 101.977 336.716 107.795C336.716 113.25 334.754 116.462 331.068 117.068C329.998 117.25 329.879 117.796 329.701 121.796C329.523 126.705 328.631 128.463 326.312 128.463C324.113 128.463 323.637 127.312 323.637 121.978V116.947H295.756C265.021 116.947 261.752 116.644 252.3 113.25C241.48 109.31 242.134 109.371 223.765 109.371C205.573 109.371 201.59 109.795 190.949 112.947C168.062 119.735 152.843 134.342 147.552 154.526C146.482 158.586 146.244 161.314 146.244 167.557C146.185 176.769 147.017 180.103 151 187.801C155.399 196.225 159.679 200.65 167.586 204.771C175.671 208.893 172.223 208.711 235.951 209.075C292.903 209.438 293.675 209.438 298.55 210.772C316.682 215.681 331.128 229.561 336.716 247.562C338.38 252.835 338.975 264.533 337.964 270.533C335.646 284.171 329.582 296.232 319.833 306.536C306.754 320.416 290.762 328.234 270.253 330.84C266.21 331.386 264.903 331.325 263.238 330.598C259.612 329.083 259.433 327.871 259.433 307.263V289.08H266.448C277.862 289.08 285.769 286.353 291.773 280.352C301.879 270.352 301.047 256.957 290.049 251.199L286.542 249.38L228.877 249.077L171.153 248.714L164.019 246.835C139.408 240.168 118.423 219.439 110.635 194.165C107.484 184.043 106.949 179.921 106.949 166.951C106.949 157.253 107.187 153.859 108.079 149.98C111.883 133.13 119.552 118.038 130.609 105.371C136.376 98.7642 139.17 96.158 146.66 90.4C160.928 79.5508 179.178 72.0351 199.094 68.7622C202.363 68.2167 211.459 67.55 219.306 67.2469L233.573 66.762L244.155 63.974C259.017 60.0949 264.189 59.4888 274.176 60.5798ZM230.244 126.342C231.196 126.827 232.087 127.675 232.325 128.16C232.503 128.706 232.682 137.009 232.682 146.525C232.682 165.86 232.86 166.829 236.07 167.132C237.794 167.314 238.864 166.466 248.614 156.768C260.147 145.313 260.979 144.767 265.497 146.101C267.518 146.707 269.718 148.525 275.782 154.526C293.438 172.042 295.697 173.981 299.561 175.072C300.869 175.436 306.278 175.739 311.629 175.739C320.487 175.739 321.378 175.618 322.448 174.527C323.221 173.739 323.637 172.527 323.637 170.83C323.637 167.435 324.47 166.041 326.61 166.041C328.928 166.041 330.177 167.981 330.177 171.739C330.177 175.921 328.393 179.254 323.875 183.558C313.056 193.922 297.599 195.377 285.828 187.073C283.807 185.679 278.338 180.77 273.641 176.163C265.14 167.799 263.06 166.223 261.514 167.072C261.098 167.375 255.094 173.072 248.198 179.8L235.654 192.104H220.257H204.801L184.588 172.284C173.412 161.374 164.316 152.344 164.316 152.162C164.376 151.98 166.694 149.313 169.548 146.222L174.72 140.646L192.554 158.162C211.518 176.769 212.41 177.436 214.491 174.406C215.323 173.254 215.442 169.921 215.442 150.707V128.403L216.928 126.948C218.236 125.554 218.83 125.433 223.467 125.433C226.796 125.433 229.174 125.736 230.244 126.342ZM117.234 237.561C124.189 245.198 132.69 251.684 141.369 256.108L148.147 259.563L148.8 263.2C149.811 269.079 153.021 275.261 157.302 279.625C163.544 285.989 171.629 289.019 181.973 289.08C184.648 289.08 187.204 289.262 187.739 289.444C188.571 289.747 188.69 291.989 188.69 308.112C188.69 325.264 188.631 326.477 187.501 328.355C186.847 329.446 185.658 330.598 184.885 330.901C180.843 332.477 163.068 328.174 153.735 323.385C142.796 317.749 131.144 307.869 123.951 298.111C119.849 292.595 114.856 282.898 112.537 275.806C108.97 265.139 107.484 249.562 109.03 239.38C109.743 234.834 110.694 231.5 111.348 231.5C111.527 231.5 114.202 234.228 117.234 237.561ZM241.599 267.867C242.728 269.018 242.788 269.867 242.788 296.171C242.788 311.142 243.085 325.204 243.382 327.507C244.75 337.205 249.268 346.175 256.461 353.387C261.633 358.661 266.983 361.933 273.641 363.994C278.041 365.388 298.729 369.025 329.939 373.934C338.499 375.268 345.93 376.54 346.465 376.722C348.07 377.328 349.378 380.48 348.962 382.723C348.13 387.147 345.158 387.875 333.981 386.42C324.529 385.147 279.527 378.298 263.951 375.692C257.531 374.601 251.824 373.934 250.932 374.177C248.97 374.662 247.306 377.086 247.841 378.722C248.198 379.995 255.629 386.723 265.438 394.724C273.523 401.269 275.484 403.633 275.484 406.724C275.484 408.603 275.128 409.573 273.82 410.906C271.977 412.725 268.707 413.695 266.27 413.088C265.497 412.907 257.828 406.785 249.268 399.512C240.767 392.299 232.384 385.208 230.72 383.814C224.418 378.541 221.922 378.844 213.837 386.056C200.461 397.996 184.053 411.694 182.151 412.543C176.384 415.089 170.142 409.149 172.877 403.694C173.412 402.663 179.595 396.906 186.609 390.905C200.639 378.844 201.412 377.874 198.499 375.268C196.478 373.51 198.321 373.389 175.017 377.207C133.76 383.935 110.873 387.268 106.355 387.268C102.728 387.268 100.112 385.026 100.112 381.874C100.112 379.51 101.539 377.328 103.501 376.722C104.096 376.54 115.926 374.48 129.837 372.116C175.374 364.479 176.979 364.055 184.826 358.721C192.435 353.509 198.677 345.326 202.066 336.174C204.979 328.174 205.336 323.87 205.336 295.262C205.336 271.564 205.455 268.776 206.346 267.745C207.238 266.715 208.546 266.654 223.883 266.654C239.637 266.654 240.469 266.715 241.599 267.867Z" fill="#FAFAFA"/>
<path d="M293.616 83.248C289.098 85.3087 287.077 90.2181 288.86 94.8245C291.238 101.249 299.799 102.583 303.841 97.1277C305.922 94.3396 306.16 89.4302 304.257 86.8846C301.463 83.0055 297.183 81.5509 293.616 83.248Z" fill="#FAFAFA"/>
</g>
<defs>
<clipPath id="clip0_113_80">
<rect width="450" height="450" fill="white"/>
</clipPath>
</defs>
</svg>
