<svg width="250" height="250" viewBox="0 0 250 250" fill="none" xmlns="http://www.w3.org/2000/svg">
<path d="M109.495 195.311C97.2957 192.62 87.5287 182.689 81.8493 168.087C76.1791 153.509 74.7524 134.605 79.1028 114.878C83.4532 95.1514 92.6984 78.6011 103.974 67.7601C115.268 56.9015 128.307 51.9992 140.505 54.6894C152.704 57.3796 162.471 67.3111 168.151 81.9128C173.821 96.4909 175.248 115.395 170.897 135.122C166.547 154.849 157.302 171.399 146.026 182.24C134.732 193.098 121.693 198.001 109.495 195.311Z" stroke="#262626" stroke-width="6"/>
<path fill-rule="evenodd" clip-rule="evenodd" d="M88.5883 87.709C88.7334 87.6507 88.8789 87.5927 89.0247 87.5351C90.7892 84.5917 92.6903 81.8223 94.7055 79.2467C94.2331 79.3859 93.7633 79.5283 93.2961 79.6738C91.6269 82.1999 90.0521 84.883 88.5883 87.709ZM167.632 83.8578C167.453 83.7751 167.273 83.6928 167.092 83.6111C168.167 86.1733 169.091 88.876 169.855 91.6968C169.959 91.7538 170.062 91.8111 170.165 91.8685C169.446 89.0843 168.599 86.4086 167.632 83.8578ZM179.678 98.3298C179.188 95.3024 178.565 92.3543 177.815 89.5001C191.515 98.5595 200 111.119 200 125C200 141.573 187.906 156.262 169.28 165.36C170.734 162.453 172.075 159.421 173.291 156.279C173.769 155.978 174.24 155.673 174.705 155.363C187.204 147.03 194 136.177 194 125C194 115.409 188.996 106.056 179.678 98.3298ZM171.304 96.928C171.213 96.8708 171.121 96.8138 171.029 96.7569C171.536 99.3643 171.916 102.054 172.16 104.809C172.273 104.896 172.385 104.983 172.496 105.07C172.214 102.283 171.815 99.5649 171.304 96.928ZM180.986 114.468C180.971 110.945 180.785 107.485 180.439 104.107C186.503 110.187 190 117.342 190 125C190 134.571 184.538 143.357 175.427 150.241C176.565 146.701 177.549 143.041 178.36 139.278C182.116 134.718 184 129.828 184 125C184 121.471 182.994 117.91 180.986 114.468ZM167.655 148.274C166.697 148.859 165.702 149.426 164.675 149.973C163.398 152.951 161.991 155.806 160.468 158.526C161.828 157.98 163.153 157.403 164.439 156.798C165.616 154.063 166.692 151.218 167.655 148.274ZM161.986 162.058C160.444 162.691 158.859 163.286 157.234 163.842C155.338 166.714 153.308 169.398 151.168 171.872C153.291 171.345 155.369 170.756 157.396 170.108C159.026 167.572 160.561 164.884 161.986 162.058ZM70.3298 151.676C70.7949 154.683 71.391 157.612 72.1117 160.452C58.4543 151.396 50 138.856 50 125C50 108.25 62.3541 93.4243 81.3189 84.3507C79.8315 87.248 78.4566 90.2724 77.207 93.4105C76.5572 93.8117 75.9198 94.2206 75.2952 94.637C62.7956 102.97 56 113.823 56 125C56 134.594 61.0067 143.949 70.3298 151.676ZM69.1253 135.721C69.1255 139.195 69.2904 142.609 69.612 145.944C63.5163 139.853 60 132.679 60 125C60 115.276 65.6381 106.363 75.0122 99.4305C73.8474 102.938 72.8358 106.567 71.9931 110.301C68.0019 114.979 66 120.022 66 125C66 128.594 67.0434 132.221 69.1253 135.721ZM125 165C110.79 165 97.6457 162.194 86.9492 157.433C86.1567 155.011 85.5 152.457 84.9901 149.793C95.4319 155.433 109.421 159 125 159C135.382 159 145.057 157.416 153.447 154.69C151.933 157.389 150.301 159.927 148.574 162.288C141.266 164.039 133.315 165 125 165ZM125 91C113.212 91 102.334 93.0421 93.2148 96.4794C94.6187 93.721 96.1434 91.1128 97.7671 88.6693C106.05 86.3141 115.276 85 125 85C138.574 85 151.176 87.5605 161.601 91.9394C162.322 94.2999 162.916 96.7782 163.375 99.3555C153.129 94.2103 139.78 91 125 91ZM125 81C116.677 81 108.735 81.9526 101.399 83.6796C103.608 80.9096 105.949 78.4174 108.38 76.232C113.726 75.4257 119.288 75 125 75C136.018 75 146.482 76.584 155.905 79.429C157.395 81.7252 158.73 84.2905 159.884 87.1129C149.702 83.2537 137.802 81 125 81ZM139.146 172.653C138.464 173.246 137.778 173.813 137.09 174.354C133.154 174.779 129.116 175 125 175C113.673 175 102.932 173.326 93.3039 170.329C91.6326 167.991 90.1339 165.34 88.8384 162.391C99.2977 166.553 111.659 169 125 169C131.854 169 138.448 168.354 144.66 167.162C142.886 169.169 141.041 171.004 139.146 172.653Z" fill="#262626"/>
<path d="M111.648 185.545C102.258 183.475 94.6591 175.302 90.3149 162.807C85.9895 150.366 85.1026 134.107 88.8682 117.032C92.6337 99.9567 100.277 85.5788 109.434 76.111C118.63 66.6022 128.962 62.3841 138.352 64.4548C147.742 66.5255 155.341 74.6979 159.685 87.1928C164.01 99.6339 164.897 115.893 161.132 132.968C157.366 150.043 149.723 164.421 140.566 173.889C131.37 183.398 121.038 187.616 111.648 185.545Z" stroke="#262626" stroke-width="6"/>
<circle cx="125" cy="125" r="22" stroke="#262626" stroke-width="6"/>
</svg>
