<svg width="400" height="400" viewBox="0 0 400 400" fill="none" xmlns="http://www.w3.org/2000/svg">
<path d="M160 182.6C158 132.6 189 131 220.5 131C245.168 134.988 262.921 154.318 262 183.5C261.486 199.777 247.346 211.368 229 216.333C229 216.333 235.178 237.59 236.981 254.5C250 257.5 255.5 265 254.5 269C253.5 273 242.5 276.5 235 273.5C227 282.5 196 284.021 182.5 274.521C169 265.021 185 216.333 185 216.333C168.219 211.71 160.693 199.933 160 182.6Z" fill="#9AFF89"/>
<path d="M185 216.333C168.219 211.71 160.693 199.933 160 182.6C158 132.6 189 131 220.5 131C245.168 134.988 262.921 154.318 262 183.5C261.486 199.777 247.346 211.368 229 216.333M185 216.333C185 216.333 169 265.021 182.5 274.521C196 284.021 227 282.5 235 273.5M185 216.333C198.718 220.112 214.946 220.136 229 216.333M235 273.5C237.685 270.479 237.892 263.044 236.981 254.5M235 273.5C242.5 276.5 253.5 273 254.5 269C255.5 265 250 257.5 236.981 254.5M229 216.333C229 216.333 235.178 237.59 236.981 254.5" stroke="#333333" stroke-width="3"/>
<path d="M222.294 267.495C221.6 268.471 220.474 269.343 218.915 270.109C217.882 268.713 217.286 267.454 217.112 266.236C216.773 263.864 217.767 263.54 220.095 265.251C222.949 264.799 223.683 265.542 222.294 267.495Z" fill="#219B35" stroke="#219B35" stroke-linecap="round"/>
<path d="M186 233.5C186 233.5 193.5 247.5 198.5 244C203.5 240.5 196.5 229 196.5 229" stroke="#333333" stroke-width="3" stroke-linecap="round"/>
<path d="M228 233.627C228 233.627 220.658 248.021 215.763 244.422C210.868 240.824 217.721 229 217.721 229" stroke="#333333" stroke-width="3" stroke-linecap="round"/>
<path d="M241.195 139.11C238.013 137.202 236.302 136.257 233.573 135.123C221.848 130.879 219.881 131.2 213.156 129.887C213.156 129.887 227.06 117.351 231.367 119.275C235.673 121.2 233.573 135.123 233.573 135.123C236.302 136.257 238.013 137.202 241.195 139.11C241.195 139.11 256.56 133.437 259.092 137.123C261.625 140.809 255.149 152.312 255.149 152.312C257.343 155.758 258.022 157.072 259.154 159.327C259.154 159.327 272.801 159.447 273.421 163.904C274.042 168.361 263.383 176.315 263.383 176.315C263.499 179.717 263.406 181.488 263 184.446C263 184.446 270.994 189.987 270.129 194.651C269.263 199.315 257.5 200 257.5 200C257.5 200 259.483 195.257 261 192.5C262.517 189.743 263.011 184.595 263 184.446C263.406 181.488 263.499 179.717 263.383 176.315L259.154 159.327C258.022 157.072 257.343 155.758 255.149 152.312C247.903 143.72 245.8 142.65 241.195 139.11Z" fill="#219B35"/>
<path d="M233.573 135.123C236.302 136.257 238.013 137.202 241.195 139.11M233.573 135.123C233.573 135.123 235.673 121.2 231.367 119.275C227.06 117.351 213.156 129.887 213.156 129.887C219.881 131.2 221.848 130.879 233.573 135.123ZM241.195 139.11C241.195 139.11 256.56 133.437 259.092 137.123C261.625 140.809 255.149 152.312 255.149 152.312M241.195 139.11C245.8 142.65 247.903 143.72 255.149 152.312M255.149 152.312C257.343 155.758 258.022 157.072 259.154 159.327M259.154 159.327C259.154 159.327 272.801 159.447 273.421 163.904C274.042 168.361 263.383 176.315 263.383 176.315M259.154 159.327L263.383 176.315M263.383 176.315C263.499 179.717 263.406 181.488 263 184.446M263 184.446C263 184.446 270.994 189.987 270.129 194.651C269.263 199.315 257.5 200 257.5 200C257.5 200 259.483 195.257 261 192.5C262.517 189.743 263.011 184.595 263 184.446Z" stroke="#333333" stroke-width="3" stroke-linecap="round"/>
<ellipse cx="176" cy="182.5" rx="6" ry="3.5" fill="#FD9E9E"/>
<ellipse cx="226" cy="182.5" rx="6" ry="3.5" fill="#FD9E9E"/>
<circle cx="181" cy="177" r="6" fill="#333333"/>
<circle cx="220" cy="177" r="6" fill="#333333"/>
<path d="M192 190C196.5 194 205.5 194 210 190" stroke="#333333" stroke-width="3" stroke-linecap="round"/>
<path d="M212.668 257.024C211.092 257.698 212.565 271.076 215.668 273.524C218.771 275.972 220.668 275.27 222.668 273.524C224.668 271.778 232.168 258.024 230.168 257.024C228.168 256.024 226.168 259.524 224.668 259.024C223.168 258.524 223.168 253.524 221.668 253.024C220.168 252.524 219.168 260.024 217.168 260.024C215.168 260.024 214.243 256.35 212.668 257.024Z" stroke="#333333" stroke-width="3" stroke-linecap="round"/>
<path d="M191.209 266.495C191.904 267.471 193.03 268.343 194.588 269.109C195.621 267.713 196.218 266.454 196.392 265.236C196.73 262.864 195.737 262.54 193.408 264.251C190.554 263.799 189.82 264.542 191.209 266.495Z" fill="#219B35" stroke="#219B35" stroke-linecap="round"/>
<path d="M200.836 256.024C202.412 256.698 200.939 270.076 197.836 272.524C194.733 274.972 192.836 274.27 190.836 272.524C188.836 270.778 181.336 257.024 183.336 256.024C185.336 255.024 187.336 258.524 188.836 258.024C190.336 257.524 190.336 252.524 191.836 252.024C193.336 251.524 194.336 259.024 196.336 259.024C198.336 259.024 199.26 255.35 200.836 256.024Z" stroke="#333333" stroke-width="3" stroke-linecap="round"/>
<path d="M229 216.5C229 216.5 236 216 236.5 218C237 220 231 224 231 224L232 227.5C232 227.5 239 226 239.5 228.5C240 231 233.5 235 233.5 235L234 238C234 238 241.5 237 242 240C242.5 243 235.5 246 235.5 246L236 249C236 249 242.5 247.5 243 250C243.5 252.5 239 255 239 255L243 256.5C243 256.5 247 252.5 249 254C251 255.5 249 260 249 260C249 260 252 257.5 254 259C256 260.5 252.5 263.5 252.5 263.5L249 260L243 256.5L239 255L236 249L235.5 246L234 238L233.5 235L232 227.5L231 224L229 216.5Z" fill="#219B35"/>
<path d="M231 224C231 224 237 220 236.5 218C236 216 229 216.5 229 216.5L231 224ZM231 224L232 227.5M232 227.5C232 227.5 239 226 239.5 228.5C240 231 233.5 235 233.5 235M232 227.5L233.5 235M233.5 235L234 238M234 238C234 238 241.5 237 242 240C242.5 243 235.5 246 235.5 246M234 238L235.5 246M235.5 246L236 249M236 249C236 249 242.5 247.5 243 250C243.5 252.5 239 255 239 255M236 249L239 255M239 255L243 256.5M243 256.5C243 256.5 247 252.5 249 254C251 255.5 249 260 249 260M243 256.5L249 260M249 260C249 260 252 257.5 254 259C256 260.5 252.5 263.5 252.5 263.5L249 260Z" stroke="#333333" stroke-width="2" stroke-linecap="round"/>
</svg>
