<svg width="400" height="400" viewBox="0 0 400 400" fill="none" xmlns="http://www.w3.org/2000/svg">
<path d="M115.196 309.51V326.702C114.763 327.295 113.943 328.069 112.735 329.026C111.528 329.983 109.933 330.849 107.95 331.624C105.968 332.376 103.587 332.752 100.807 332.752C98.3913 332.752 96.1924 332.319 94.21 331.453C92.2503 330.587 90.5641 329.323 89.1514 327.659C87.7386 325.996 86.6449 323.979 85.8701 321.609C85.1182 319.217 84.7422 316.505 84.7422 313.475V300.042C84.7422 297.125 85.1068 294.528 85.8359 292.249C86.5651 289.948 87.6133 288.011 88.9805 286.438C90.3477 284.843 91.9883 283.636 93.9023 282.815C95.8164 281.972 97.9469 281.551 100.294 281.551C103.347 281.551 105.934 282.098 108.053 283.191C110.172 284.285 111.824 285.88 113.009 287.977C114.216 290.073 114.946 292.625 115.196 295.633H113.385C113.111 293.104 112.485 290.916 111.505 289.07C110.548 287.225 109.158 285.8 107.335 284.798C105.535 283.772 103.188 283.26 100.294 283.26C98.152 283.26 96.2266 283.636 94.5176 284.388C92.8314 285.14 91.3958 286.245 90.2109 287.703C89.026 289.139 88.1146 290.893 87.4766 292.967C86.8613 295.018 86.5537 297.353 86.5537 299.974V313.475C86.5537 316.209 86.8727 318.659 87.5107 320.823C88.1715 322.965 89.1172 324.799 90.3477 326.326C91.5781 327.853 93.0706 329.015 94.8252 329.812C96.5798 330.61 98.5622 331.009 100.772 331.009C103.051 331.009 105.056 330.69 106.788 330.052C108.543 329.391 109.978 328.65 111.095 327.83C112.211 327.01 112.986 326.349 113.419 325.848V311.253H100.704V309.51H115.196ZM152.972 282.234L167.43 311.287L181.99 282.234H184.178L168.318 313.099V332H166.507V313.099L150.682 282.234H152.972ZM220.142 282.234H233.677C236.388 282.234 238.781 282.793 240.854 283.909C242.951 285.003 244.591 286.621 245.776 288.763C246.961 290.882 247.554 293.491 247.554 296.59C247.554 298.982 247.109 301.159 246.221 303.118C245.355 305.078 244.17 306.684 242.666 307.938C241.185 309.191 239.521 309.954 237.676 310.228L236.753 310.672H220.723L220.654 308.929H235.01C237.402 308.929 239.396 308.325 240.991 307.117C242.586 305.91 243.783 304.371 244.58 302.503C245.4 300.612 245.811 298.641 245.811 296.59C245.811 293.947 245.309 291.691 244.307 289.822C243.327 287.931 241.925 286.484 240.103 285.481C238.28 284.456 236.138 283.943 233.677 283.943H221.919V332H220.142V282.234ZM247.451 332L235.898 310.091L237.949 310.057L249.331 331.521V332H247.451ZM318.073 300.76V313.509C318.073 316.539 317.709 319.251 316.979 321.644C316.273 324.013 315.236 326.03 313.869 327.693C312.525 329.334 310.884 330.587 308.947 331.453C307.01 332.319 304.823 332.752 302.385 332.752C299.969 332.752 297.782 332.319 295.822 331.453C293.885 330.587 292.233 329.334 290.866 327.693C289.499 326.03 288.451 324.013 287.722 321.644C286.993 319.251 286.628 316.539 286.628 313.509V300.76C286.628 297.706 286.981 294.995 287.688 292.625C288.417 290.255 289.465 288.25 290.832 286.609C292.199 284.946 293.84 283.693 295.754 282.85C297.691 281.984 299.867 281.551 302.282 281.551C304.743 281.551 306.942 281.984 308.879 282.85C310.839 283.693 312.502 284.946 313.869 286.609C315.236 288.25 316.273 290.255 316.979 292.625C317.709 294.995 318.073 297.706 318.073 300.76ZM316.228 313.509V300.691C316.228 297.98 315.92 295.553 315.305 293.411C314.712 291.246 313.824 289.412 312.639 287.908C311.477 286.404 310.018 285.265 308.264 284.49C306.532 283.693 304.538 283.294 302.282 283.294C300.072 283.294 298.101 283.693 296.369 284.49C294.66 285.265 293.213 286.404 292.028 287.908C290.843 289.412 289.943 291.246 289.328 293.411C288.736 295.553 288.439 297.98 288.439 300.691V313.509C288.439 316.243 288.747 318.693 289.362 320.857C289.978 322.999 290.878 324.834 292.062 326.36C293.247 327.864 294.706 329.015 296.438 329.812C298.169 330.587 300.152 330.975 302.385 330.975C304.641 330.975 306.623 330.587 308.332 329.812C310.064 329.015 311.511 327.864 312.673 326.36C313.858 324.834 314.746 322.999 315.339 320.857C315.931 318.693 316.228 316.243 316.228 313.509Z" fill="#333333"/>
<path d="M235.167 189.167C214.662 209.671 192.078 223.932 172.289 230.529C152.246 237.209 136.353 235.691 127.577 226.915C118.802 218.14 117.283 202.246 123.964 182.204C130.56 162.415 144.822 139.83 165.326 119.326C185.83 98.8217 208.415 84.56 228.203 77.9638C248.246 71.2829 264.14 72.8016 272.915 81.5772C281.691 90.3527 283.209 106.246 276.529 126.289C269.932 146.078 255.671 168.662 235.167 189.167Z" stroke="#333333" stroke-width="8"/>
<path d="M228.309 125.811C245.128 142.631 256.801 161.133 262.19 177.3C267.663 193.72 266.319 206.452 259.386 213.386C252.452 220.319 239.72 221.663 223.3 216.19C207.133 210.801 188.631 199.128 171.811 182.309C154.992 165.489 143.319 146.987 137.93 130.82C132.457 114.4 133.801 101.667 140.734 94.7341C147.667 87.8009 160.4 86.4567 176.82 91.9302C192.987 97.3191 211.489 108.992 228.309 125.811Z" stroke="#333333" stroke-width="8"/>
<rect x="292.723" y="54.688" width="8" height="274.55" rx="4" transform="rotate(45 292.723 54.688)" fill="#333333"/>
</svg>
