<svg width="400" height="400" viewBox="0 0 400 400" fill="none" xmlns="http://www.w3.org/2000/svg">
<path d="M250.697 250.697C220.137 281.256 186.529 302.455 157.177 312.239C127.349 322.182 104.314 319.708 91.8033 307.197C79.2922 294.686 76.8179 271.651 86.7605 241.823C96.5445 212.471 117.744 178.863 148.303 148.303C178.863 117.744 212.471 96.5445 241.823 86.7605C271.651 76.8179 294.686 79.2922 307.197 91.8033C319.708 104.314 322.182 127.349 312.239 157.177C302.455 186.529 281.256 220.137 250.697 250.697Z" stroke="#FAFAFA" stroke-width="15"/>
<path d="M240.432 158.01C265.476 183.054 282.801 210.553 290.778 234.483C298.913 258.89 296.7 277.193 286.946 286.946C277.193 296.7 258.89 298.913 234.483 290.778C210.553 282.801 183.054 265.476 158.01 240.432C132.966 215.388 115.641 187.89 107.664 163.959C99.529 139.552 101.742 121.25 111.496 111.496C121.249 101.742 139.552 99.529 163.959 107.665C187.89 115.641 215.388 132.966 240.432 158.01Z" stroke="#FAFAFA" stroke-width="15"/>
<rect x="338.796" y="48.3568" width="18" height="410.93" rx="9" transform="rotate(45 338.796 48.3568)" fill="#FAFAFA"/>
</svg>
