<svg width="300" height="300" viewBox="0 0 300 300" fill="none" xmlns="http://www.w3.org/2000/svg">
<rect width="300" height="300" fill="#FAFAFA"/>
<path d="M145.873 121.77H164.887V238H147.807L145.873 211.145V121.77ZM149.418 183.967L155.971 183.752C155.971 191.916 155.362 199.436 154.145 206.311C152.927 213.186 151.065 219.165 148.559 224.25C146.052 229.335 142.829 233.273 138.891 236.066C135.023 238.859 130.368 240.256 124.926 240.256C120.414 240.256 116.475 239.54 113.109 238.107C109.815 236.747 106.951 234.562 104.516 231.555C102.081 228.475 99.9681 224.501 98.1777 219.631L93.8809 188.586H105.697C105.697 195.962 106.163 201.978 107.094 206.633C108.025 211.288 109.314 214.868 110.961 217.375C112.68 219.882 114.649 221.6 116.869 222.531C119.161 223.462 121.596 223.928 124.174 223.928C129.258 223.928 133.412 222.961 136.635 221.027C139.929 219.022 142.507 216.229 144.369 212.648C146.231 209.068 147.52 204.842 148.236 199.973C149.024 195.103 149.418 189.768 149.418 183.967ZM86.791 121.77H105.697V282.688H86.791V121.77ZM231.703 151.311L206.996 238H185.941L223.432 119.621L236.537 120.91L231.703 151.311ZM206.889 74.9336C210.183 74.9336 213.048 75.3633 215.482 76.2227C217.989 77.082 220.102 78.3353 221.82 79.9824C223.611 81.6296 225.115 83.599 226.332 85.8906C227.621 88.1823 228.695 90.7604 229.555 93.625L268.979 212.863C269.695 215.227 270.411 217.124 271.127 218.557C271.915 219.917 272.774 220.92 273.705 221.564C274.636 222.137 275.71 222.424 276.928 222.424C277.501 222.424 278.038 222.424 278.539 222.424C279.112 222.352 279.649 222.281 280.15 222.209L280.58 238.537C279.864 238.824 278.826 239.11 277.465 239.396C276.176 239.683 274.779 239.826 273.275 239.826C269.695 239.826 266.579 239.289 263.93 238.215C261.352 237.212 258.988 235.171 256.84 232.092C254.763 228.941 252.65 224.25 250.502 218.02L222.25 132.941L211.4 102.111C210.613 99.39 209.753 97.2415 208.822 95.666C207.891 94.0905 206.853 92.9805 205.707 92.3359C204.561 91.6198 203.236 91.2617 201.732 91.2617C201.231 91.2617 200.551 91.2975 199.691 91.3691C198.832 91.3691 198.116 91.4049 197.543 91.4766V76.2227C198.546 75.8646 200.014 75.5781 201.947 75.3633C203.881 75.0768 205.528 74.9336 206.889 74.9336Z" fill="#191919"/>
</svg>
