<svg width="400" height="400" viewBox="0 0 400 400" fill="none" xmlns="http://www.w3.org/2000/svg">
<path d="M206.658 265.685C204.467 267.13 203.021 268.079 201.829 268.693C200.703 269.273 200.052 269.417 199.5 269.417C198.948 269.417 198.297 269.273 197.171 268.693C195.979 268.079 194.533 267.13 192.342 265.685L103.902 207.352C99.2456 204.281 96.0425 202.159 93.9605 200.295C91.9212 198.47 91.5297 197.39 91.5297 196.5C91.5297 195.61 91.9212 194.53 93.9605 192.705C96.0425 190.841 99.2456 188.719 103.902 185.648L192.342 127.315C194.533 125.87 195.979 124.921 197.171 124.307C198.297 123.727 198.948 123.583 199.5 123.583C200.052 123.583 200.703 123.727 201.829 124.307C203.021 124.921 204.467 125.87 206.658 127.315L295.098 185.648C299.754 188.719 302.958 190.841 305.039 192.705C307.079 194.53 307.47 195.61 307.47 196.5C307.47 197.39 307.079 198.47 305.039 200.295C302.958 202.159 299.754 204.281 295.098 207.352L206.658 265.685Z" fill="white" stroke="#333333" stroke-width="6"/>
<g filter="url(#filter0_d_9_2)">
<path d="M208.349 232.126C204.059 234.974 201.914 236.398 199.5 236.398C197.086 236.398 194.941 234.974 190.651 232.126L102.081 173.33C93.0035 167.304 88.4649 164.292 88.4649 160C88.4649 155.708 93.0035 152.696 102.081 146.67L190.651 87.8742C194.941 85.0262 197.086 83.6022 199.5 83.6022C201.914 83.6022 204.059 85.0262 208.349 87.8742L296.919 146.67C305.996 152.696 310.535 155.708 310.535 160C310.535 164.292 305.996 167.304 296.919 173.33L208.349 232.126Z" fill="white"/>
<path d="M206.69 229.626C204.49 231.086 203.037 232.046 201.841 232.666C200.709 233.252 200.055 233.398 199.5 233.398C198.945 233.398 198.291 233.252 197.159 232.666C195.963 232.046 194.51 231.086 192.31 229.626L103.74 170.831C99.1189 167.763 95.9413 165.644 93.8761 163.785C91.8542 161.965 91.4649 160.888 91.4649 160C91.4649 159.112 91.8542 158.035 93.8761 156.215C95.9413 154.356 99.1189 152.237 103.74 149.169L192.31 90.3737C194.51 88.9137 195.963 87.9539 197.159 87.334C198.291 86.7476 198.945 86.6022 199.5 86.6022C200.055 86.6022 200.709 86.7476 201.841 87.334C203.037 87.9539 204.49 88.9137 206.69 90.3737L295.26 149.169C299.881 152.237 303.059 154.356 305.124 156.215C307.146 158.035 307.535 159.112 307.535 160C307.535 160.888 307.146 161.965 305.124 163.785C303.059 165.644 299.881 167.763 295.26 170.831L206.69 229.626Z" stroke="#333333" stroke-width="6"/>
</g>
<g filter="url(#filter1_d_9_2)">
<path d="M208.31 190.189C204.037 193.008 201.901 194.417 199.5 194.417C197.099 194.417 194.963 193.008 190.69 190.189L102.25 131.856C93.1031 125.823 88.5297 122.807 88.5297 118.5C88.5297 114.193 93.1031 111.177 102.25 105.144L190.69 46.8105C194.963 43.9925 197.099 42.5835 199.5 42.5835C201.901 42.5835 204.037 43.9925 208.31 46.8105L296.75 105.144C305.897 111.177 310.47 114.193 310.47 118.5C310.47 122.807 305.897 125.823 296.75 131.856L208.31 190.189Z" fill="#333333"/>
<path d="M206.658 187.685C204.467 189.13 203.021 190.079 201.829 190.693C200.703 191.273 200.052 191.417 199.5 191.417C198.948 191.417 198.297 191.273 197.171 190.693C195.979 190.079 194.533 189.13 192.342 187.685L103.902 129.352C99.2456 126.281 96.0425 124.159 93.9605 122.295C91.9212 120.47 91.5297 119.39 91.5297 118.5C91.5297 117.61 91.9212 116.53 93.9605 114.705C96.0425 112.841 99.2456 110.719 103.902 107.648L192.342 49.3148C194.533 47.8702 195.979 46.9207 197.171 46.3074C198.297 45.7274 198.948 45.5835 199.5 45.5835C200.052 45.5835 200.703 45.7274 201.829 46.3074C203.021 46.9207 204.467 47.8702 206.658 49.3148L295.098 107.648C299.754 110.719 302.958 112.841 305.039 114.705C307.079 116.53 307.47 117.61 307.47 118.5C307.47 119.39 307.079 120.47 305.039 122.295C302.958 124.159 299.754 126.281 295.098 129.352L206.658 187.685Z" stroke="#333333" stroke-width="6"/>
</g>
<path d="M98.8466 338.545C98.642 336.104 97.6449 334.129 95.8551 332.62C94.0781 331.112 91.777 330.357 88.9517 330.357C87.0469 330.357 85.353 330.709 83.87 331.412C82.3871 332.115 81.2237 333.074 80.38 334.288C79.5362 335.503 79.1143 336.896 79.1143 338.469C79.1143 339.479 79.3061 340.393 79.6896 341.211C80.0859 342.016 80.642 342.739 81.358 343.378C82.0739 344.004 82.924 344.554 83.9084 345.027C84.8928 345.5 85.9794 345.915 87.1683 346.273L91.4638 347.539C92.9339 347.987 94.2891 348.504 95.5291 349.092C96.782 349.68 97.8686 350.384 98.7891 351.202C99.7223 352.007 100.445 352.953 100.956 354.04C101.48 355.126 101.742 356.379 101.742 357.798C101.742 359.869 101.205 361.723 100.131 363.359C99.0703 364.996 97.5554 366.287 95.5866 367.233C93.6307 368.166 91.3232 368.633 88.6641 368.633C86.1328 368.633 83.9276 368.205 82.0483 367.348C80.1818 366.491 78.7053 365.303 77.6186 363.781C76.532 362.247 75.9183 360.483 75.7777 358.489H78.2322C78.3601 360.112 78.8778 361.518 79.7855 362.707C80.706 363.884 81.9268 364.791 83.4482 365.43C84.9695 366.07 86.7081 366.389 88.6641 366.389C90.7734 366.389 92.6335 366.031 94.2443 365.315C95.8551 364.587 97.1143 363.577 98.022 362.286C98.9297 360.994 99.3835 359.492 99.3835 357.779C99.3835 356.398 99.0575 355.216 98.4055 354.232C97.7536 353.247 96.7884 352.397 95.5099 351.681C94.2443 350.965 92.6719 350.326 90.7926 349.763L86.2095 348.383C83.1413 347.45 80.7955 346.178 79.1719 344.567C77.5611 342.956 76.7557 340.949 76.7557 338.545C76.7557 336.526 77.2926 334.736 78.3665 333.176C79.4403 331.604 80.8977 330.37 82.7386 329.475C84.5923 328.58 86.6825 328.133 89.0092 328.133C91.3487 328.133 93.4134 328.587 95.2031 329.494C96.9929 330.389 98.4119 331.623 99.4602 333.195C100.509 334.755 101.09 336.538 101.205 338.545H98.8466ZM130.207 330.952V328.727H157.725V330.952H145.165V368H142.768V330.952H130.207ZM181.957 368H179.426L193.597 328.727H196.358L210.529 368H207.998L195.073 331.815H194.882L181.957 368ZM185.543 353.215H204.412V355.44H185.543V353.215ZM267.524 341H265.069C264.813 339.67 264.334 338.386 263.631 337.146C262.928 335.893 262.02 334.768 260.908 333.771C259.809 332.761 258.53 331.962 257.073 331.374C255.615 330.786 254.005 330.491 252.24 330.491C249.658 330.491 247.28 331.182 245.107 332.562C242.946 333.93 241.214 335.944 239.91 338.603C238.619 341.262 237.973 344.516 237.973 348.364C237.973 352.237 238.619 355.504 239.91 358.163C241.214 360.822 242.946 362.835 245.107 364.203C247.28 365.558 249.658 366.236 252.24 366.236C254.005 366.236 255.615 365.948 257.073 365.373C258.53 364.785 259.809 363.992 260.908 362.995C262.02 361.985 262.928 360.854 263.631 359.601C264.334 358.348 264.813 357.057 265.069 355.727H267.524C267.242 357.312 266.699 358.866 265.894 360.387C265.101 361.908 264.053 363.289 262.749 364.529C261.458 365.756 259.93 366.734 258.166 367.463C256.414 368.179 254.439 368.537 252.24 368.537C248.968 368.537 246.085 367.706 243.592 366.044C241.099 364.369 239.143 362.017 237.724 358.987C236.318 355.957 235.615 352.416 235.615 348.364C235.615 344.311 236.318 340.77 237.724 337.74C239.143 334.71 241.099 332.364 243.592 330.702C246.085 329.028 248.968 328.19 252.24 328.19C254.439 328.19 256.414 328.555 258.166 329.283C259.93 329.999 261.458 330.971 262.749 332.198C264.053 333.413 265.101 334.781 265.894 336.302C266.699 337.823 267.242 339.389 267.524 341ZM298.338 368V328.727H300.735V351.528H301.003L321.714 328.727H324.897L307.849 347.309L324.743 368H321.752L306.315 349.035L300.735 355.21V368H298.338Z" fill="#333333"/>
<defs>
<filter id="filter0_d_9_2" x="84.4649" y="83.6022" width="230.07" height="160.796" filterUnits="userSpaceOnUse" color-interpolation-filters="sRGB">
<feFlood flood-opacity="0" result="BackgroundImageFix"/>
<feColorMatrix in="SourceAlpha" type="matrix" values="0 0 0 0 0 0 0 0 0 0 0 0 0 0 0 0 0 0 127 0" result="hardAlpha"/>
<feOffset dy="4"/>
<feGaussianBlur stdDeviation="2"/>
<feComposite in2="hardAlpha" operator="out"/>
<feColorMatrix type="matrix" values="0 0 0 0 0 0 0 0 0 0 0 0 0 0 0 0 0 0 0.25 0"/>
<feBlend mode="normal" in2="BackgroundImageFix" result="effect1_dropShadow_9_2"/>
<feBlend mode="normal" in="SourceGraphic" in2="effect1_dropShadow_9_2" result="shape"/>
</filter>
<filter id="filter1_d_9_2" x="84.5297" y="42.5834" width="229.941" height="159.833" filterUnits="userSpaceOnUse" color-interpolation-filters="sRGB">
<feFlood flood-opacity="0" result="BackgroundImageFix"/>
<feColorMatrix in="SourceAlpha" type="matrix" values="0 0 0 0 0 0 0 0 0 0 0 0 0 0 0 0 0 0 127 0" result="hardAlpha"/>
<feOffset dy="4"/>
<feGaussianBlur stdDeviation="2"/>
<feComposite in2="hardAlpha" operator="out"/>
<feColorMatrix type="matrix" values="0 0 0 0 0 0 0 0 0 0 0 0 0 0 0 0 0 0 0.25 0"/>
<feBlend mode="normal" in2="BackgroundImageFix" result="effect1_dropShadow_9_2"/>
<feBlend mode="normal" in="SourceGraphic" in2="effect1_dropShadow_9_2" result="shape"/>
</filter>
</defs>
</svg>
