<svg width="400" height="400" viewBox="0 0 400 400" fill="none" xmlns="http://www.w3.org/2000/svg">
<g clip-path="url(#clip0_1_2)">
<g clip-path="url(#clip1_1_2)">
<circle cx="200.5" cy="200.5" r="187.5" fill="white"/>
<path d="M0 200V400H200H400V200V0H200H0V200ZM203.32 48.5156C205.469 51.875 209.648 57.3047 213.398 61.6797C215.508 64.1406 218.164 67.6172 219.336 69.375C223.32 75.4297 229.727 85.5859 230.156 86.5625C230.664 87.6172 230.742 87.6172 234.57 86.0938L236.914 85.1562L238.203 86.4453L239.492 87.6953L247.344 79.6875C257.461 69.375 272.383 53.3984 276.25 48.6719L277.188 47.5391L279.023 50.4297C280 52.0312 281.68 54.375 282.695 55.625C283.711 56.875 285.82 59.5703 287.305 61.5234C288.828 63.5156 290.898 66.1719 291.914 67.4219C293.867 69.7656 302.539 82.6953 304.961 86.7578C305.703 88.0469 306.328 89.0625 306.406 89.0625C306.445 89.0625 307.812 88.6328 309.375 88.0859C312.969 86.875 313.125 86.875 313.398 88.1641C313.633 89.2969 314.141 90.0781 321.719 100.898C328.828 110.977 335.508 119.805 346.914 134.141C349.805 137.812 353.594 142.656 355.273 144.922C356.953 147.188 360.82 152.109 363.906 155.898C366.953 159.688 372.031 166.211 375.195 170.352C378.359 174.531 381.133 178.125 381.289 178.359C381.602 178.75 375.859 187.617 371.484 193.594C370.195 195.312 360.625 208.867 353.672 218.75C352.539 220.352 350.195 223.594 348.477 225.977C346.758 228.32 344.258 231.836 342.93 233.789C341.602 235.703 339.336 238.867 337.93 240.781C336.523 242.734 334.023 246.211 332.422 248.516C330.82 250.859 325.469 258.477 320.508 265.508C315.586 272.539 310.43 279.844 309.102 281.797C305.625 286.914 301.289 292.227 299.883 293.203C295.625 296.016 279.922 305.117 264.453 313.672C257.227 317.656 247.109 323.555 234.57 331.055C230.938 333.242 224.883 336.719 221.172 338.828C217.461 340.898 211.953 344.102 208.945 345.898C205.938 347.734 203.398 349.219 203.281 349.219C202.969 349.219 195.898 345.234 192.578 343.164C190.742 342.07 187.93 340.391 186.328 339.453C184.727 338.516 181.484 336.641 179.102 335.234C176.758 333.867 173.828 332.148 172.656 331.445C171.484 330.781 165.859 327.5 160.156 324.18C154.453 320.82 147.617 316.914 144.922 315.43C142.227 313.945 137.773 311.406 134.961 309.727C132.188 308.086 129.102 306.328 128.125 305.859C127.148 305.352 123.906 303.555 120.898 301.836C117.891 300.078 114.023 297.93 112.305 297.07C105.625 293.594 104.805 293.008 103.203 290.703C102.383 289.492 99.8047 285.82 97.4609 282.617C95.1172 279.375 91.1719 273.75 88.6719 270.117C86.1719 266.445 83.2422 262.227 82.1875 260.742C81.0938 259.219 76.25 252.461 71.4062 245.703C66.6016 238.945 61.3281 231.562 59.6875 229.297C58.0859 227.031 54.1406 221.484 50.9766 216.992C47.8125 212.461 42.9688 205.781 40.2344 202.148C34.1797 194.023 27.3047 184.609 25.0391 181.367L23.3594 178.945L24.6484 176.875C25.3906 175.742 26.7969 173.828 27.7734 172.656C30.3516 169.531 41.4453 155.273 45.5469 149.805C47.5 147.227 50.4688 143.281 52.1484 141.016C53.8281 138.75 58.0469 133.398 61.4844 129.102C68.6328 120.195 72.8906 114.727 76.7578 109.375C88.1641 93.6328 88.3984 93.2422 88.8672 89.4531C89.2578 86.6016 89.5703 86.0547 91.6016 85.1172C95.3516 83.3594 105.586 73.5547 116.25 61.5234C118.125 59.375 121.328 55.9375 123.32 53.8672C125.273 51.7578 127.266 49.5312 127.695 48.8281L128.438 47.5781L130.547 50.625C132.812 53.9062 136.406 58.5156 141.055 63.9453C142.656 65.8594 144.336 67.9297 144.766 68.5547C145.156 69.2188 147.266 72.2266 149.453 75.2344C151.641 78.2812 154.414 82.3828 155.664 84.375L157.969 87.9688L160.312 87.6953C161.641 87.5391 163.125 87.1875 163.672 86.9141C164.805 86.3281 183.711 67.2656 187.695 62.6953C189.18 60.9766 192.539 57.3828 195.117 54.6875C197.734 51.9922 200.352 49.1406 200.938 48.3203C201.562 47.5391 202.07 46.875 202.148 46.875C202.188 46.875 202.734 47.6172 203.32 48.5156Z" fill="#111111"/>
<path d="M200.078 56.7657C197.344 60.711 184.375 74.8125 178.125 80.6328C168.594 89.5 163.594 95.0078 160.742 99.8516C158.008 104.422 149.375 115.711 138.945 128.289C136.797 130.906 133.555 134.969 131.758 137.352C130 139.695 127.773 142.508 126.875 143.602C125.977 144.656 123.945 147.313 122.383 149.461C120.781 151.609 117.617 155.75 115.313 158.68C113.008 161.609 109.18 166.609 106.797 169.813C104.375 173.016 100.977 177.469 99.2188 179.734C94.6094 185.555 93.75 186.766 93.9453 187C94.2188 187.273 95.4297 186.727 95.4297 186.336C95.4297 185.984 100.664 181.688 101.133 181.688C101.602 181.688 105.391 178.406 110.078 173.875C114.648 169.5 117.852 166.727 123.945 161.961C125.586 160.672 127.891 158.797 129.063 157.781C132.578 154.773 139.922 148.563 145.859 143.602C148.945 141.023 153.047 137.43 154.961 135.594C157.5 134 158 134 158 134C158.5 134 158.703 133.969 159.102 133.484C159.5 133 159.414 132.82 159.805 132.703C160.234 132.547 160.781 132 161.094 131.414C161.406 130.828 162.773 129.305 164.141 127.977C165.547 126.688 167.383 124.969 168.242 124.109C170.938 121.57 175 118.5 175.781 118.172C176.563 117.844 178 118 178.927 118.172C179.854 118.344 181.066 119 182 119C181 119 182.934 119 182 119C183 119 183.043 118.997 183.789 118.953C184.535 118.909 184.844 118.484 186.484 112.938C188.359 106.648 189.102 104.734 189.609 104.734C189.766 104.734 189.961 104.344 190.039 103.875C190.117 103.172 190.547 102.898 191.914 102.586C192.891 102.352 194.258 101.883 194.922 101.492C195.625 101.102 197.578 100.633 199.219 100.438C200.859 100.203 202.344 99.8516 202.5 99.5781C202.969 98.836 202.188 97.7813 197.422 92.7031C192.109 87.0781 189.805 83.9141 190.195 82.7031C190.352 82.2735 191.719 79.2266 193.281 76.0235C196.914 68.5235 201.68 57.0782 201.68 55.7891C201.68 55.125 200.898 55.5938 200.078 56.7657Z" fill="black"/>
<path d="M123.633 61.7969C116.484 70.3125 112.109 74.9609 106.68 79.8047C100.547 85.3125 99.3359 86.25 96.3281 87.6953L93.9453 88.8672L93.125 91.9922C92.6953 93.7109 91.6797 96.4453 90.8594 98.0469C88.7891 102.07 83.6328 109.805 79.2969 115.43C77.2656 118.008 74.4141 121.797 72.8906 123.828C71.4063 125.859 69.0234 128.945 67.5781 130.664C66.1328 132.383 61.9141 137.812 58.2031 142.773C54.4531 147.695 49.8047 153.867 47.8516 156.445C42.3438 163.711 34.4531 173.789 32.3438 176.211C31.3281 177.422 30.4688 178.633 30.4688 178.906C30.4688 179.141 31.0938 180.117 31.8359 181.016L33.1641 182.656L38.5547 177.578C41.5234 174.805 45.8984 170.586 48.2422 168.203C52.0703 164.336 55.5469 161.328 66.3281 152.383C71.2891 148.281 82.4609 138.164 84.8828 135.625C86.0938 134.336 87.1094 133.398 87.1094 133.516C87.1094 133.828 78.3594 159.961 76.6016 164.961C75.9375 166.836 74.0625 171.719 72.4609 175.82C70.8203 179.922 69.1406 184.453 68.7109 185.859C68.2813 187.305 67.3828 189.805 66.7188 191.406C66.0547 193.008 65.0391 195.664 64.4531 197.266C63.8672 198.867 63.2422 200.508 63.0859 200.859C62.6953 201.797 61.0547 201.758 60.4688 200.781C60.1953 200.352 59.7656 200 59.5313 200C59.2969 200 58.8672 199.727 58.5547 199.375C57.8125 198.477 55.0391 197.148 53.6328 197.031C52.1875 196.914 50.9766 197.93 50.1563 199.844C49.4922 201.406 48.3984 202.109 47.6563 201.445C47.3828 201.172 49.1406 203.945 51.6016 207.539C54.0625 211.172 57.3047 215.937 58.7891 218.164C60.3125 220.391 61.6406 222.187 61.7969 222.148C62.0313 222.07 64.2969 218.984 73.3594 206.25C75.1172 203.789 77.7734 200.078 79.2578 198.047C80.7031 196.016 83.5547 191.875 85.5859 188.867C87.6172 185.859 90.7031 181.367 92.5 178.906C94.2969 176.445 96.0156 173.984 96.4063 173.477C96.7578 172.969 96.9922 171.953 96.9531 171.25C96.875 170.547 97.2266 168.477 97.6953 166.719C98.7891 162.344 100.75 156.477 102 150.5C102.547 147.805 103.922 142.078 104 142C104.078 141.922 104.609 139.148 105 139.5C105.664 140.125 105.742 139.258 106.602 135.43C107.07 133.242 108.438 129.062 109.57 126.172C110.703 123.281 112.813 117.344 114.258 112.969C115.703 108.633 116.844 105 117 105C117 105 117 105 117.5 104C118 103 117.805 103.312 118 103C118.273 102.531 128.867 99.6094 130.078 99.6094C130.391 99.6094 128.867 97.8125 126.719 95.5859C121.484 90.2343 117.695 86.1328 117.227 85.2344C116.914 84.6484 117.344 83.5156 119.18 79.6484C121.484 74.8828 125 66.7578 125.586 64.8437C125.742 64.2969 126.484 62.3047 127.227 60.4297C127.969 58.5547 128.516 56.8359 128.438 56.6015C128.359 56.3672 126.211 58.7109 123.633 61.7969Z" fill="black"/>
<path d="M273.477 60.2343C271.758 62.2265 268.945 65.4296 267.266 67.3828C265.586 69.2968 259.219 75.7421 253.125 81.7187L242.07 92.5L244.336 95.3906C248.32 100.469 255.586 109.414 259.336 113.828C263.75 119.062 270.977 128.242 275 133.789C276.602 135.977 279.18 139.453 280.703 141.445C282.227 143.477 284.258 146.25 285.234 147.656C286.211 149.062 287.773 151.055 288.75 152.148C289.688 153.203 292.227 156.484 294.375 159.375C296.523 162.266 299.453 165.977 300.859 167.578C303.438 170.547 317.344 189.297 323.438 198.008C325.273 200.625 328.125 204.727 329.805 207.109C331.445 209.492 332.812 211.367 332.812 211.25C332.812 211.133 332.461 210.234 332.031 209.258C331.602 208.32 330.625 204.727 329.883 201.328C329.102 197.891 327.695 191.953 326.758 188.086C325.781 184.219 324.766 179.727 324.414 178.125C324.102 176.523 323.477 173.945 323.047 172.461C322.617 170.937 321.836 167.969 321.328 165.82C320.82 163.672 319.297 157.695 317.969 152.539C314.57 139.414 313.438 134.648 312.852 131.055C311.797 123.984 310.117 114.414 309.375 111.133C308.945 109.062 308.516 105.117 308.359 101.562L308.086 95.5468L306.953 99.0234C305.547 103.398 303.398 111.094 302.148 116.016C301.25 119.648 300.508 122.344 298.125 130.273C296.758 134.883 296.25 137.422 295.898 141.406C295.781 143.008 295.273 146.25 294.805 148.633L293.906 152.93L292.812 150.977C292.227 149.922 291.289 147.617 290.742 145.898C289.844 143.086 288.438 139.805 284.062 130.352C282.812 127.578 282.461 127.148 280.117 125.586C278.711 124.609 277.266 123.437 276.914 122.969C271.172 114.727 265.391 104.844 265.703 103.867C265.781 103.633 267.344 102.969 269.141 102.344C270.977 101.758 273.633 100.742 275.078 100.117L277.734 98.9453L276.328 97.6171C274.258 95.664 267.93 88.3593 266.445 86.25C265.547 85 265.234 84.2187 265.43 83.6328C265.547 83.2031 267.266 79.5312 269.219 75.5078C271.133 71.4843 273.477 66.1328 274.414 63.6328C275.312 61.1328 276.367 58.6328 276.719 58.0859C277.109 57.5 277.227 56.9921 276.992 56.875C276.797 56.7578 275.234 58.2812 273.477 60.2343Z" fill="black"/>
<path d="M207.617 106.094C205.703 106.406 203.242 106.602 202.148 106.563C200.234 106.484 200.195 106.523 200.273 107.617C200.312 108.203 200.82 109.414 201.406 110.273C202.227 111.523 202.305 111.875 201.875 112.148C201.602 112.344 201.25 112.5 201.094 112.5C200.703 112.5 200.742 116.602 201.133 117.969C201.289 118.594 202.031 119.297 203.281 119.922L205.156 120.898L204.961 123.828C204.727 127.461 204.453 128.086 203.164 128.359C199.453 129.102 193.125 131.094 190.742 132.266C184.961 135.078 159.297 153.242 157.109 156.094C156.602 156.719 155.312 158.633 154.219 160.352C153.125 162.07 151.328 164.648 150.156 166.094L148.086 168.672L148.984 169.297C149.883 169.844 149.922 170.195 150.195 175.273C150.469 181.055 151.094 183.828 152.578 185.82L153.516 187.07L152.617 187.188C152.148 187.266 150.664 187.227 149.336 187.109L146.875 186.914V188.008C146.875 189.727 147.461 190.508 150.859 193.008C153.711 195.117 154.141 195.313 155.859 195.273C157.812 195.195 158.594 195.469 158.594 196.211C158.594 196.484 159.102 196.953 159.688 197.305C160.469 197.734 161.055 198.633 161.719 200.43C162.227 201.797 163.828 205.703 165.312 209.141C166.758 212.539 167.969 215.547 167.969 215.82C167.969 216.055 166.211 218.359 164.062 220.859C161.211 224.258 160.078 225.313 159.922 224.844C159.609 224.023 153.633 220.43 150.43 219.141C146.758 217.656 146.797 217.109 150.586 217.031C151.562 216.992 151.758 216.797 151.992 215.703C152.148 215 152.109 214.336 151.953 214.258C151.758 214.141 150 214.219 147.969 214.453C143.359 214.922 138.672 214.961 138.672 214.492C138.672 213.32 139.219 212.891 140.664 212.891C143.75 212.891 147.422 210.039 149.141 206.328C151.289 201.602 149.297 196.25 144.375 193.477C142.188 192.227 141.953 192.188 137.656 192.188H133.203L133.281 202.617L133.398 213.086L134.57 213.281C136.055 213.516 136.289 215.039 134.883 215C134.375 215 127.969 214.961 120.625 214.922L107.227 214.844L107.344 203.516L107.461 192.188H103.594C100.039 192.188 99.5703 192.266 97.5391 193.398C93.4766 195.586 91.4062 198.477 91.4062 201.875C91.4062 205.781 93.125 209.219 96.0156 211.133C97.5781 212.148 100.82 213.281 102.266 213.281C103.477 213.281 103.359 214.375 102.148 214.688C101.602 214.805 99.4922 214.844 97.4609 214.766L93.75 214.609V216.094C93.75 217.539 93.7891 217.578 95.1172 217.578H96.4844L96.5234 222.93C96.5625 225.898 96.5625 230.82 96.5234 233.906L96.4844 239.531L95.3516 240.625C93.2031 242.813 90.2734 251.836 90.2344 256.367C90.2344 257.852 90.2344 257.852 91.6797 257.734C93.3984 257.578 93.6328 257.07 94.6875 251.406C95.3906 247.656 96.5234 244.922 96.7969 246.25C96.875 246.641 96.6406 248.672 96.25 250.742C95.5859 254.375 95.4297 259.883 95.8594 264.375C96.7188 272.891 102.539 282.617 110.352 288.555C113.477 290.938 123.125 295.313 125.195 295.313C125.742 295.313 126.172 295.469 126.172 295.703C126.172 295.898 125.859 296.094 125.469 296.094C125.078 296.094 124.453 296.328 124.062 296.602C123.203 297.227 123.633 297.617 126.172 298.594C127.148 298.984 130.234 300.508 133.008 302.031C142.852 307.461 174.609 325.664 181.25 329.766C185.938 332.656 202.305 342.07 202.969 342.266C203.242 342.344 205.938 340.898 209.023 339.102C212.109 337.305 218.594 333.594 223.438 330.781C228.281 328.008 233.281 325.078 234.57 324.258C235.859 323.438 239.297 321.406 242.188 319.727C245.078 318.086 249.062 315.781 250.977 314.648C255.039 312.305 264.648 306.953 272.266 302.852C275.156 301.289 278.789 299.531 280.273 298.945C283.086 297.891 283.867 297.422 283.555 297.07C283.438 296.992 281.602 296.68 279.453 296.445C274.336 295.859 273.828 295.547 276.758 294.727C287.109 291.875 295.391 284.961 300.312 275.156C303.203 269.453 304.336 261.445 303.32 254.531C300.859 238.086 291.289 226.836 276.016 222.461C268.828 220.43 257.539 220.898 252.188 223.477C251.328 223.867 250.508 224.219 250.391 224.219C250 224.219 249.18 222.266 249.414 221.875C249.531 221.68 251.602 221.055 254.023 220.469C257.969 219.492 259.102 219.375 265.43 219.375C270.898 219.336 273.203 219.492 275.742 220.078C277.578 220.469 279.258 220.859 279.492 220.977C279.883 221.094 281.836 216.836 281.523 216.563C281.484 216.523 278.086 216.172 273.984 215.82C265.078 215 259.688 215.352 252.617 217.188C250.234 217.813 248.125 218.359 247.969 218.359C247.812 218.359 247.344 217.617 246.953 216.68C246.523 215.781 245.82 214.688 245.352 214.297C244.922 213.867 244.531 213.438 244.531 213.281C244.531 213.086 245.742 212.695 247.227 212.305C250.312 211.563 252.227 210.547 250.195 210.742C249.531 210.82 247.891 211.133 246.562 211.445L244.062 212.07L242.148 207.969C241.094 205.703 240.234 203.789 240.234 203.672C240.234 203.555 239.336 201.523 238.242 199.141C237.07 196.602 236.367 194.727 236.602 194.492C236.797 194.297 237.461 194.063 238.086 193.906L239.258 193.711L240.977 199.023C241.953 201.953 242.93 204.609 243.125 204.883C243.477 205.352 243.906 205.313 245.703 204.688C247.305 204.141 248.32 203.477 249.609 202.031C250.586 200.938 252.422 199.453 253.711 198.711C257.305 196.602 257.578 196.211 257.227 193.164C256.953 190.625 256.992 190.586 257.773 190.977C260.703 192.578 260.312 196.797 256.953 199.219C255.078 200.625 252.695 201.797 251.055 202.148C250 202.344 249.961 202.461 250.078 204.219C250.195 206.055 250.195 206.055 251.68 206.172C255.625 206.523 259.102 204.297 262.383 199.375C263.789 197.266 263.867 196.992 263.867 194.063C263.867 191.484 263.984 190.977 264.57 190.781C264.922 190.664 265.742 190.156 266.367 189.609C267.656 188.555 268.242 188.633 269.297 190.117C269.883 190.938 269.961 191.25 269.57 191.758C269.336 192.109 268.828 193.008 268.516 193.75C267.93 195 267.93 195.195 268.555 196.328C269.531 198.125 273.008 200.898 273.633 200.391C274.023 200.039 273.945 199.609 273.203 198.281C272.383 196.836 272.266 196.094 272.305 193.516C272.344 191.797 272.227 188.828 272.07 186.914C271.836 183.867 271.875 183.32 272.422 182.852C273.281 182.109 273.203 181.484 272.031 180.117C271.289 179.219 270.703 178.906 269.727 178.906C268.281 178.906 267.852 179.297 267.227 181.328C266.641 183.164 265.977 183.672 263.828 183.984C262.148 184.258 262.07 184.219 260.703 182.539C258.516 179.883 257.578 179.57 251.68 179.375C247.031 179.219 246.484 179.258 246.484 179.844C246.484 181.016 245.43 180.938 243.32 179.57C239.883 177.383 223.75 169.258 221.953 168.75C220.469 168.359 220.156 168.086 219.531 166.563C218.75 164.766 212.891 155.898 211.953 155.117C211.562 154.805 210.898 155.039 209.102 156.211C207.812 157.031 206.602 157.93 206.445 158.203C206.133 158.75 206.914 159.883 211.836 165.898C213.75 168.203 215.586 170.703 215.938 171.367C216.289 172.07 216.758 172.656 217.031 172.656C217.305 172.656 221.016 174.375 225.273 176.523C229.531 178.633 235.391 181.445 238.281 182.813C241.172 184.141 243.789 185.43 244.062 185.664C244.883 186.328 243.672 186.641 240.547 186.68L237.93 186.719L237.812 188.164C237.734 189.297 237.5 189.688 236.914 189.766C235.039 190.039 230.234 191.172 229.961 191.406C229.648 191.641 231.055 195.391 232.656 198.516C233.594 200.352 233.594 200.352 232.812 200.781C232.031 201.172 229.219 201.797 216.016 204.297C207.305 205.938 207.148 206.016 206.016 208.711L205.117 210.938H206.055C207.188 210.938 219.766 208.828 223.633 208.008C225.156 207.656 228.281 207.07 230.625 206.68L234.844 206.016L235.469 207.266L236.055 208.555L233.125 211.797C231.523 213.594 229.18 216.289 227.891 217.813C224.648 221.68 213.359 234.297 209.57 238.281C207.852 240.117 204.805 243.516 202.812 245.898C200.82 248.242 197.812 251.719 196.172 253.555L193.203 256.953L191.406 256.016C190.43 255.508 188.984 254.805 188.203 254.531C186.914 254.023 186.758 253.789 186.484 252.148L186.211 250.313L183.086 248.789C180 247.305 178.906 246.992 178.906 247.539C178.906 247.695 179.297 249.375 179.766 251.289C180.469 254.258 180.508 254.805 180.039 255.117C178.633 255.977 178.242 255.547 178.008 252.813C177.617 248.594 176.758 246.328 175.078 244.961C172.344 242.656 172.5 242.734 172.773 243.516C173.281 244.805 174.922 251.719 175.234 253.633L175.508 255.547L174.375 255.391C173.555 255.313 173.164 255 173.008 254.297C172.852 253.75 172.344 251.914 171.875 250.195C170.312 244.297 166.992 238.242 162.891 233.867C160.547 231.367 160.078 230.078 161.445 230.078C162.305 230.078 168.711 237.461 169.961 239.922C170.977 241.914 171.289 242.188 172.734 242.578C176.016 243.438 179.688 244.922 184.023 247.109C188.242 249.219 193.75 251.133 195.586 251.172C196.562 251.172 197.656 249.844 197.656 248.672C197.656 248.203 196.328 246.602 194.375 244.727C189.805 240.352 188.672 238.633 188.672 236.25C188.672 234.492 188.594 234.375 187.695 234.375C187.07 234.375 186.719 234.141 186.719 233.75C186.719 233.008 189.883 227.734 192.266 224.531C193.203 223.281 195.078 220.664 196.484 218.711C197.891 216.758 199.961 213.984 201.094 212.578C202.227 211.133 203.516 209.063 203.984 208.008C204.492 206.914 205.703 204.375 206.719 202.383C208.672 198.516 208.867 197.617 208.203 195.234C207.852 193.945 207.539 193.711 205.156 192.813C198.438 190.156 194.922 188.516 194.922 188.008C194.922 187.734 195.469 186.406 196.133 185.117C196.797 183.789 197.266 182.695 197.188 182.617C197.109 182.539 193.125 181.055 188.281 179.297C183.438 177.5 179.336 175.938 179.18 175.781C178.711 175.391 180.391 172.773 182.422 170.703C183.398 169.727 187.266 166.992 190.977 164.648C194.688 162.266 198.594 159.609 199.609 158.672C200.625 157.773 201.641 157.031 201.836 157.031C202.07 157.031 202.539 157.383 202.93 157.813C203.867 158.867 204.062 158.828 204.609 157.266C205.039 156.055 205.664 155.625 209.961 153.438L214.766 150.977L212.031 147.266C206.602 139.883 203.555 135 204.062 134.453C204.18 134.336 205.742 135.703 207.539 137.461C209.336 139.18 210.977 140.625 211.211 140.625C211.406 140.625 211.914 140.273 212.344 139.805C212.734 139.336 213.555 138.75 214.141 138.438C215.547 137.695 215.547 136.797 214.062 132.773C212.891 129.648 212.812 128.125 213.828 128.125C214.688 128.125 215.508 129.375 217.148 133.398C218.047 135.508 218.984 137.422 219.258 137.578C219.922 138.008 222.031 137.969 223.203 137.5C223.906 137.227 224.297 136.68 224.609 135.469C225.234 132.969 226.25 130.781 227.188 129.883C228.008 129.102 228.008 129.023 227.422 125.742C227.109 123.867 226.914 122.109 227.07 121.797C227.188 121.406 228.164 121.133 230.117 120.938C231.719 120.781 233.125 120.547 233.281 120.391C233.828 119.844 232.422 115.469 230.977 113.359C229.219 110.781 227.5 109.258 224.648 107.852C220.234 105.586 214.609 105.039 207.617 106.094ZM218.555 109.023C221.562 109.57 224.414 110.977 226.875 113.125C228.633 114.648 230.078 116.914 229.609 117.422C229.492 117.539 228.359 116.719 227.109 115.625C224.297 113.203 220.234 111.172 216.602 110.313C212.812 109.414 211.836 109.023 212.461 108.594C213.047 108.281 214.883 108.398 218.555 109.023ZM192.969 197.852C193.867 198.164 195.039 198.438 195.547 198.438C196.758 198.438 196.719 198.867 195.469 200.391C194.883 201.055 193.438 203.398 192.227 205.586L190 209.57L187.227 209.531C182.773 209.492 181.914 207.891 184.805 205.078L186.406 203.555L185.547 202.461C184.688 201.367 183.594 199.063 183.594 198.359C183.594 197.891 186.328 198.32 188.125 199.063C189.414 199.609 189.453 199.57 190.039 198.438C190.742 197.07 190.781 197.07 192.969 197.852ZM172.93 212.109C172.891 212.422 172.539 212.734 172.148 212.813C171.68 212.93 171.211 212.383 170.508 210.859C169.062 207.813 169.336 207.383 171.289 209.57C172.227 210.625 172.969 211.797 172.93 212.109ZM186.211 218.047C183.086 223.828 181.68 226.055 179.922 227.969C178.984 229.023 178.125 229.805 178.008 229.688C177.812 229.453 175.43 223.711 174.102 220.234C173.164 217.813 173.281 217.422 175.078 216.992C176.133 216.719 176.172 216.758 175.938 217.891C175.781 218.711 176.094 219.922 177.227 222.422L178.711 225.859L180.117 224.258C182.109 222.031 184.609 217.188 183.984 216.797C183.125 216.25 184.961 214.844 186.562 214.844H187.969L186.211 218.047ZM241.289 218.242L242.969 221.367L240.898 222.734C237.734 224.844 233.281 229.18 230.742 232.617C228.32 235.859 225.039 242.031 223.75 245.703C221.68 251.641 220.977 258.828 221.68 266.133L221.953 268.789L223.398 268.516C225.352 268.164 225.703 267.617 225.352 265.156C224.922 262.148 224.922 259.375 225.391 259.297C226.641 259.141 226.719 259.258 226.797 261.523C226.914 266.328 227.93 270.508 230.078 275.273C231.641 278.711 233.281 280.977 236.875 284.727C241.328 289.297 245.742 291.992 253.047 294.531C255.039 295.234 256.641 295.938 256.641 296.094C256.641 296.25 252.734 296.523 247.969 296.68C236.562 297.031 143.516 296.758 143.125 296.367C142.617 295.898 144.18 295.039 146.484 294.531C149.297 293.906 155.234 291.133 157.852 289.141C160.586 287.109 165.781 281.992 167.031 280.078C167.969 278.711 168.164 278.594 170.508 278.32C171.875 278.203 173.945 277.813 175.078 277.5C178.242 276.68 178.125 276.563 178.125 280.117V283.32L180.781 283.047C182.227 282.891 184.062 282.578 184.883 282.344C186.055 281.992 186.562 281.992 187.148 282.344C187.539 282.617 188.945 282.813 190.273 282.813C192.383 282.813 192.695 282.93 192.852 283.633C193.047 284.375 193.32 284.453 195.117 284.297C196.25 284.219 198.281 283.594 199.727 282.891C201.914 281.875 202.461 281.406 202.969 280.234C203.711 278.477 203.477 277.813 202.07 277.539C198.555 276.758 195.898 275.195 194.844 273.32C194.57 272.773 194.648 272.383 195.234 271.758C195.664 271.289 196.289 270.039 196.68 269.023C197.305 267.344 197.344 266.758 196.953 264.258C196.523 261.406 196.523 261.367 197.578 260.117C200.039 257.227 208.945 247.227 211.68 244.336C213.32 242.617 219.492 235.742 225.43 229.102C236.25 216.914 238.398 214.688 239.219 214.961C239.453 215 240.391 216.484 241.289 218.242ZM115.625 216.406C115.781 216.953 115.781 224.219 115.664 232.617L115.43 247.852L113.789 247.969C112.188 248.086 112.109 248.047 112.031 246.992C111.914 244.297 112.188 217.266 112.344 216.289C112.539 215.313 112.695 215.195 113.984 215.313C115.078 215.391 115.43 215.625 115.625 216.406ZM145.156 220.742C150.664 222.734 151.562 223.164 155.195 225.273C158.242 227.07 158.672 227.617 157.617 228.516C157.109 228.945 156.875 228.867 156.133 228.203C153.867 226.094 145.078 222.656 140.156 222.031L138.281 221.758V220.234V218.672L139.609 218.906C140.312 219.063 142.852 219.844 145.156 220.742ZM135.859 220.586C135.742 221.992 135.664 222.07 134.336 222.188C133.086 222.305 132.891 222.188 132.656 221.289C132.305 219.883 133.008 219.141 134.648 219.141C135.938 219.141 135.977 219.18 135.859 220.586ZM171.875 225.391C172.461 226.992 173.438 229.336 174.062 230.586L175.156 232.813L173.164 234.844L171.172 236.836L170.312 235.156C169.844 234.258 168.086 232.109 166.406 230.43L163.398 227.344L164.453 225.859C165 225.078 166.445 223.398 167.578 222.148L169.648 219.883L170.195 221.172C170.508 221.875 171.25 223.789 171.875 225.391ZM244.688 225.625C245.078 226.68 244.961 226.836 243.164 227.891C238.633 230.586 232.344 238.398 229.727 244.727C228.32 248.047 226.953 253.047 226.953 254.766C226.953 255.938 226.914 255.977 226.016 255.625C225 255.234 225.273 252.617 226.719 248.242C229.727 239.297 234.141 232.734 241.133 226.914C243.516 224.883 244.297 224.609 244.688 225.625ZM135.078 238.086C134.961 249.023 134.922 249.18 133.164 249.219C132.656 249.219 132.5 248.555 132.305 245.391C131.992 240.781 131.953 229.805 132.266 228.711C132.422 228.086 132.852 227.852 133.828 227.813L135.195 227.695L135.078 238.086ZM270.859 228.32C272.5 228.633 274.023 228.984 274.219 229.102C274.414 229.219 274.297 230.117 273.906 231.172C273.555 232.188 272.305 236.602 271.094 241.016C269.062 248.594 268.867 249.023 267.969 249.141C267.422 249.18 266.797 249.102 266.562 248.945C266.289 248.711 266.211 245.273 266.328 238.164C266.523 226.211 265.977 227.383 270.859 228.32ZM141.484 228.789C145.039 229.531 144.961 229.336 143.555 234.023C142.656 236.992 141.094 243.906 140.43 247.734C140.234 249.023 140.078 249.219 139.141 249.219C136.953 249.219 136.992 249.414 137.305 238.32C137.5 231.289 137.734 228.125 138.008 228.125C138.281 228.125 139.844 228.438 141.484 228.789ZM264.531 238.438L264.414 248.75L263.398 249.023C262.188 249.297 262.188 249.297 260.117 245.117C258.75 242.422 258.555 241.758 258.75 240.195C258.906 239.141 258.672 236.602 258.203 233.945C257.773 231.484 257.422 229.297 257.422 229.023C257.422 228.438 258.477 228.242 261.914 228.164L264.648 228.125L264.531 238.438ZM256.25 233.789C256.523 235.938 257.07 238.477 257.5 239.453C258.047 240.781 258.086 241.055 257.656 240.625C257.07 240.039 252.617 230.43 252.852 230.234C252.93 230.156 253.555 229.844 254.297 229.531C255.312 229.102 255.664 229.102 255.742 229.414C255.742 229.688 256.016 231.641 256.25 233.789ZM283.125 233.086L284.18 233.945L282.773 235.43C279.961 238.438 275.156 244.805 272.227 249.297C271.289 250.742 270.703 251.172 270.703 250.391C270.703 248.711 275.547 231.172 276.445 229.57C276.641 229.258 281.484 231.797 283.125 233.086ZM149.922 231.719C151.797 232.617 153.398 233.398 153.477 233.438C153.555 233.516 151.953 235.352 149.961 237.578C147.93 239.805 145.43 242.695 144.336 244.023C143.281 245.352 142.383 246.406 142.344 246.367C141.992 246.016 145.977 230.078 146.406 230.078C146.484 230.078 148.086 230.82 149.922 231.719ZM250.781 237.773C251.953 240.586 254.102 244.805 255.586 247.148C257.031 249.531 258.203 251.758 258.203 252.109C258.203 253.555 256.953 253.242 254.922 251.211C253.008 249.336 251.953 248.633 252.578 249.688C252.773 249.961 252.266 249.727 251.523 249.18C250.469 248.398 242.188 243.086 239.492 241.484C238.477 240.898 239.727 238.828 242.383 236.719C243.75 235.625 245 234.766 245.156 234.766C245.352 234.766 245.859 235.273 246.289 235.898C248.086 238.477 251.484 242.813 252.109 243.359C252.773 243.867 252.773 243.828 252.188 242.383C251.328 240.313 249.18 237.227 247.461 235.547L246.094 234.219L246.953 233.32C247.422 232.813 248.008 232.461 248.203 232.539C248.438 232.617 249.609 234.961 250.781 237.773ZM288.672 237.461C290 238.945 291.055 240.313 291.016 240.508C290.977 240.664 289.648 241.523 288.086 242.383C283.867 244.648 278.516 248.555 276.172 251.016C274.102 253.164 274.102 253.203 273.359 252.422C272.578 251.641 272.578 251.641 274.258 249.18C277.07 245 285.352 234.922 286.016 234.805C286.133 234.766 287.344 235.977 288.672 237.461ZM160.938 240.977C160.938 241.172 159.023 242.5 156.719 243.867C154.414 245.234 150.508 247.813 148.086 249.531C145.664 251.289 143.516 252.617 143.32 252.5C142.852 252.227 142.891 250.898 143.359 250.586C143.594 250.469 145.43 248.32 147.5 245.859C149.57 243.359 152.422 240.117 153.828 238.594L156.406 235.859L158.672 238.203C159.922 239.492 160.938 240.742 160.938 240.977ZM164.062 246.289L165.195 249.023L163.672 249.727C162.031 250.469 150.547 253.555 146.562 254.336C144.062 254.805 142.969 254.531 144.297 253.75C144.727 253.516 146.484 252.383 148.203 251.211C149.961 250.039 153.75 247.617 156.641 245.859C160.82 243.281 162.031 242.734 162.422 243.125C162.656 243.359 163.398 244.805 164.062 246.289ZM294.102 245.313C294.766 246.836 295.312 248.281 295.312 248.555C295.312 249.414 279.023 253.945 276.172 253.867C275.117 253.828 274.805 253.711 275.391 253.633C275.898 253.516 277.5 252.383 278.867 251.094C280.273 249.766 282.539 247.969 283.945 247.07C287.07 245.039 291.758 242.578 292.383 242.578C292.656 242.578 293.398 243.828 294.102 245.313ZM243.047 246.172C248.594 249.531 252.031 251.25 252.812 251.016C253.086 250.938 254.023 251.641 254.883 252.656C255.82 253.711 256.133 254.258 255.664 254.023C255.234 253.789 253.75 253.516 252.344 253.359C250.938 253.203 247.969 252.656 245.703 252.148C243.438 251.68 240.273 250.977 238.672 250.625C234.258 249.648 234.336 249.766 236.133 246.133C236.953 244.375 237.695 242.969 237.734 242.969C237.773 242.969 240.156 244.414 243.047 246.172ZM166.367 252.656C166.562 253.438 166.836 255.195 166.953 256.484C167.148 258.359 167.109 258.945 166.68 259.102C166.367 259.219 163.867 259.141 161.094 258.984C158.32 258.789 153.359 258.633 150.117 258.594H144.141V257.461V256.367L147.188 256.172C150.273 255.977 155.039 254.688 161.719 252.227C163.75 251.484 165.547 250.938 165.703 251.055C165.859 251.133 166.172 251.875 166.367 252.656ZM296.758 254.102C296.992 255.82 297.227 257.656 297.227 258.203L297.266 259.219L286.25 259.102C274.102 259.023 274.688 259.141 274.648 256.523C274.609 255.547 274.727 255.469 276.094 255.469C278.398 255.469 290.391 252.852 292.852 251.797C294.102 251.289 295.391 250.898 295.703 250.938C296.133 250.977 296.406 251.836 296.758 254.102ZM132.422 253.359C132.422 255 132.227 255.352 130.742 256.836C129.727 257.852 128.477 258.672 127.539 258.906C126.641 259.141 120.703 259.375 113.984 259.453C103.164 259.57 101.992 259.492 101.836 258.945C101.68 258.359 102.852 258.281 114.023 258.047C120.82 257.891 126.992 257.617 127.812 257.422C129.57 256.914 131.523 254.766 131.875 252.93C132.227 251.055 132.422 251.211 132.422 253.359ZM237.617 252.383C239.375 252.813 242.266 253.594 244.023 254.102C245.742 254.609 248.672 255.234 250.469 255.469C256.289 256.25 256.25 256.211 256.25 257.383C256.25 257.93 256.094 258.555 255.938 258.789C255.781 259.023 251.406 259.18 244.414 259.219L233.125 259.258L233.398 256.094C233.672 252.813 233.906 251.563 234.258 251.563C234.336 251.563 235.859 251.914 237.617 252.383ZM177.344 257.422C177.656 257.617 177.734 257.813 177.461 257.813C177.227 257.813 176.641 258.594 176.172 259.57C175.508 260.938 175.117 261.328 174.375 261.328C173.516 261.328 173.438 261.172 173.438 259.18V257.031H175.117C176.016 257.031 177.031 257.227 177.344 257.422ZM124.688 260.938C125.273 260.938 125.781 261.094 125.781 261.328C125.781 261.992 123.672 262.813 118.906 264.023C116.367 264.688 112.227 265.938 109.766 266.797C103.086 269.18 103.789 269.297 102.969 265.742C102.578 264.063 102.148 262.5 102.07 262.227C101.953 261.992 102.461 261.68 103.203 261.523C105.039 261.094 117.227 260.586 120.664 260.781C122.266 260.859 124.062 260.938 124.688 260.938ZM252.695 260.938C255.742 261.328 257.109 261.953 256.172 262.539C255.898 262.734 254.336 263.164 252.734 263.516C248.984 264.297 238.867 267.344 236.68 268.359C235.742 268.75 234.844 268.984 234.688 268.828C234.258 268.359 233.047 261.758 233.32 261.445C233.984 260.82 248.633 260.43 252.695 260.938ZM293.633 260.859C295.391 261.016 296.953 261.25 297.109 261.406C297.344 261.68 296.328 268.281 295.938 268.633C295.859 268.711 294.062 268.164 291.914 267.383C289.805 266.563 285.547 265.313 282.422 264.57C275.664 262.969 273.906 262.266 274.57 261.602C275.43 260.742 286.758 260.313 293.633 260.859ZM154.297 263.828C157.188 264.141 161.211 264.531 163.203 264.688C165.43 264.844 166.797 265.117 166.797 265.391C166.797 265.938 166.016 268.75 165.859 268.75C165.82 268.75 164.297 268.242 162.461 267.617C157.656 266.016 152.695 264.961 148.438 264.648C144.688 264.375 143.359 263.984 143.359 263.203C143.359 262.734 144.766 262.813 154.297 263.828ZM128.477 264.688C128.789 265 127.773 266.758 126.445 268.242C125.703 269.063 124.18 271.133 123.008 272.852C120.508 276.602 118.477 279.219 116.133 281.797L114.336 283.672L111.836 281.172L109.336 278.633L112.383 276.367C114.062 275.117 117.461 272.07 119.922 269.609C122.383 267.148 124.844 264.883 125.391 264.57C126.25 264.102 127.969 264.18 128.477 264.688ZM258.125 264.922C258.398 265.195 258.594 265.625 258.594 265.898C258.594 266.172 256.367 269.336 253.633 272.93C246.758 282.031 245.547 283.516 245.195 283.555C244.766 283.594 240 279.023 240.234 278.789C240.352 278.711 242.148 277.305 244.219 275.625C246.328 273.984 249.531 270.977 251.367 269.023C255.547 264.57 256.914 263.711 258.125 264.922ZM278.32 268.398C280.469 270.586 284.023 273.75 286.25 275.508C288.438 277.227 290.234 278.75 290.234 278.867C290.234 279.023 289.219 280.156 287.93 281.406L285.664 283.672L282.773 280.234C281.172 278.359 278.906 275.547 277.734 273.984C276.562 272.422 274.648 270.117 273.555 268.828L271.484 266.484L272.305 265.469C272.734 264.922 273.398 264.453 273.75 264.453C274.102 264.453 276.172 266.25 278.32 268.398ZM122.344 265.977C119.805 268.281 108.906 276.953 108.438 276.953C108.203 276.953 107.148 275.547 106.133 273.828L104.336 270.703L105.664 270.156C110.234 268.242 120.586 265.117 123.203 264.883C123.359 264.844 122.969 265.352 122.344 265.977ZM280.469 265.781C284.57 266.719 295.312 270.547 295.312 271.016C295.273 271.445 292.031 277.07 291.758 277.109C291.641 277.148 289.18 275.391 286.289 273.242C280.742 269.102 275.82 264.648 277.148 265C277.578 265.117 279.062 265.469 280.469 265.781ZM144.766 266.836C145.664 267.461 147.617 269.063 149.102 270.43C150.625 271.797 152.383 273.242 153.047 273.672C154.609 274.57 154.609 274.844 153.086 275.156C151.289 275.508 149.805 275.43 149.375 275C149.141 274.766 148.516 274.766 147.656 275C146.914 275.234 145.664 275.391 144.844 275.391C143.438 275.391 143.398 275.352 143.164 273.516C143.008 272.5 142.656 270.586 142.344 269.219C141.602 265.859 141.641 265.195 142.5 265.508C142.852 265.664 143.906 266.25 144.766 266.836ZM253.32 265.625C253.008 266.133 246.172 271.992 242.969 274.453C238.75 277.734 239.023 277.734 237.188 274.492C236.289 272.93 235.547 271.445 235.547 271.211C235.547 270.977 236.836 270.352 238.398 269.766C239.922 269.219 242.539 268.32 244.141 267.773C245.742 267.188 248.477 266.406 250.195 266.016C251.914 265.625 253.359 265.313 253.438 265.273C253.516 265.273 253.438 265.391 253.32 265.625ZM153.008 267.031C158.125 268.164 163.047 269.688 164.375 270.547L165.234 271.133L164.453 272.656C163.438 274.609 162.695 275 159.766 275C157.422 275 157.344 274.961 155.156 272.93C153.945 271.758 151.484 269.844 149.727 268.594C147.93 267.344 146.484 266.289 146.484 266.172C146.484 265.781 148.867 266.094 153.008 267.031ZM174.492 266.25C175.078 266.406 175.391 266.914 175.586 267.891C175.742 268.711 176.406 270.43 177.07 271.797C178.086 273.828 178.203 274.336 177.734 274.609C177.07 275 170.312 276.289 170.078 276.055C170 275.977 170.508 274.336 171.25 272.422C171.992 270.508 172.695 268.281 172.852 267.461C173.164 265.938 173.164 265.898 174.492 266.25ZM140.703 269.922C141.055 271.758 141.367 273.711 141.406 274.297C141.406 275.391 141.367 275.391 138.867 275.391C136.445 275.391 136.328 275.352 136.328 274.453C136.328 273.945 136.953 272.773 137.734 271.836C139.062 270.273 139.141 270.039 138.906 268.242C138.672 266.563 138.711 266.367 139.336 266.484C139.883 266.563 140.195 267.344 140.703 269.922ZM259.141 271.172C258.594 274.414 255.039 287.695 254.57 288.125C254.297 288.398 247.266 285.156 247.266 284.805C247.305 284.492 250.469 280.039 253.906 275.469C255.508 273.359 257.422 270.781 258.086 269.766C258.789 268.789 259.414 267.969 259.492 267.969C259.609 267.969 259.414 269.414 259.141 271.172ZM263.906 268.359C264.727 268.359 264.727 268.359 264.609 279.18L264.453 290.039L263.008 289.922C261.016 289.805 256.641 289.023 256.641 288.789C256.641 288.711 257.305 285.938 258.164 282.695C260.586 273.164 261.328 269.961 261.328 268.867C261.328 268.047 261.445 267.93 262.227 268.125C262.695 268.242 263.477 268.359 263.906 268.359ZM269.336 269.414C269.844 272.422 271.992 280.781 273.086 284.102C274.57 288.594 274.531 288.984 272.969 289.258C269.336 289.844 266.953 290.117 266.719 289.961C266.523 289.883 266.406 285 266.406 279.102C266.406 267.852 266.367 268.086 268.203 268.008C268.867 267.969 269.102 268.281 269.336 269.414ZM276.992 275.977C279.102 278.75 281.562 281.875 282.422 282.852L283.984 284.648L280.43 286.484C278.477 287.5 276.797 288.242 276.719 288.203C276.68 288.125 275.82 285.859 274.883 283.203C273.438 279.141 272.617 276.016 271.289 269.766C271.016 268.516 272.812 270.469 276.992 275.977ZM128.125 271.133C128.125 273.32 126.328 281.133 125.039 284.766C123.789 288.164 123.32 288.438 121.094 286.953C120.273 286.406 118.867 285.742 118.008 285.469C117.109 285.195 116.406 284.805 116.406 284.648C116.406 284.453 117.266 283.32 118.32 282.109C119.375 280.898 121.094 278.633 122.148 277.148C125.742 271.953 127.539 269.57 127.852 269.531C128.008 269.531 128.125 270.273 128.125 271.133ZM132.422 270.156L134.492 270.781L132.539 272.773C131.445 273.906 130.352 275.234 130.078 275.742C129.648 276.602 129.688 276.797 130.664 277.656C131.523 278.398 132.07 278.555 133.086 278.398L134.375 278.164V283.398C134.375 286.25 134.258 288.867 134.141 289.219C133.828 290.039 130.977 290.039 128.438 289.297C127.461 288.984 126.523 288.867 126.367 288.984C125.898 289.414 126.406 286.719 127.461 283.008C128.906 277.891 130.078 272.5 130.078 270.938C130.078 270.156 130.117 269.531 130.195 269.531C130.273 269.531 131.25 269.805 132.422 270.156ZM161.641 276.055C161.25 276.133 160.625 276.133 160.273 276.055C159.883 275.938 160.195 275.859 160.938 275.859C161.68 275.859 161.992 275.938 161.641 276.055ZM158.555 278.008C159.219 278.398 159.727 278.867 159.727 279.102C159.688 279.297 158.633 280.43 157.383 281.602L155.078 283.711L153.555 281.992C151.875 280.117 150.938 278.633 151.211 278.32C151.445 278.125 155.156 277.461 156.523 277.383C156.992 277.383 157.891 277.656 158.555 278.008ZM142.812 283.164C143.555 286.055 144.062 288.477 143.984 288.594C143.711 288.867 138.203 289.844 136.992 289.844H135.898L136.016 284.063C136.055 280.898 136.133 278.164 136.25 278.008C136.328 277.852 137.539 277.734 138.945 277.813L141.523 277.93L142.812 283.164ZM150.625 280.938C151.68 282.734 152.578 284.375 152.656 284.648C152.773 285.156 147.734 287.891 146.68 287.891C146.367 287.891 146.094 287.852 146.094 287.773C146.094 287.734 145.586 285.859 144.922 283.594C143.242 277.656 143.203 277.734 146.25 277.734H148.711L150.625 280.938Z" fill="black"/>
<path d="M111.328 201.25C111.328 206.25 111.445 210.977 111.562 211.719L111.797 213.086L120.547 212.969L129.297 212.852V202.539V192.188H120.312H111.328V201.25Z" fill="black"/>
<path d="M209.805 222.148C209.102 222.969 208.398 223.789 208.203 224.023C208.008 224.219 204.687 227.539 200.82 231.406C196.914 235.234 193.555 238.633 193.281 238.945C192.93 239.375 193.437 240.117 196.133 242.812C197.93 244.609 199.57 246.094 199.805 246.094C200.781 246.094 214.844 230.391 214.844 229.297C214.844 228.867 215.391 228.164 216.016 227.656C216.68 227.188 217.187 226.602 217.187 226.367C217.187 225.82 212.031 220.703 211.445 220.703C211.211 220.703 210.469 221.367 209.805 222.148Z" fill="black"/>
<path d="M92.1875 231.523C92.1875 232.344 92.0703 233.945 91.9531 235.039L91.6797 237.109H93.0469C93.8281 237.109 94.6484 236.875 94.8828 236.562C95.1562 236.25 95.3906 234.727 95.4297 233.125L95.5078 230.273L93.8672 230.156L92.1875 230.039V231.523Z" fill="black"/>
</g>
</g>
<defs>
<clipPath id="clip0_1_2">
<rect width="400" height="400" fill="white"/>
</clipPath>
<clipPath id="clip1_1_2">
<rect width="400" height="400" rx="200" fill="white"/>
</clipPath>
</defs>
</svg>
